<?xml version="1.0" encoding="UTF-8"?>
<svg version="1.1" xmlns="http://www.w3.org/2000/svg" width="1200" height="1200">
<path d="M0 0 C396 0 792 0 1200 0 C1200 396 1200 792 1200 1200 C804 1200 408 1200 0 1200 C0 804 0 408 0 0 Z " fill="#007EBB" transform="translate(0,0)"/>
<path d="M0 0 C15.39229674 -0.25653828 30.55619441 -0.10253869 45.81054688 2.06201172 C46.68775391 2.1802832 47.56496094 2.29855469 48.46875 2.42041016 C82.28755716 7.11680281 116.09381529 19.39691247 142.81054688 41.06201172 C143.60887939 41.70807373 143.60887939 41.70807373 144.42333984 42.3671875 C189.46485982 79.03196248 211.534138 133.21295473 217.81054688 190.06201172 C218.68281325 201.32438201 218.95400152 212.54456819 218.93080139 223.83631897 C218.93123881 225.45141362 218.93211683 227.06650821 218.93339056 228.68160242 C218.93560211 233.06701341 218.93166064 237.45239948 218.9266125 241.8378073 C218.9222596 246.58670076 218.92375783 251.33559302 218.92451477 256.08448792 C218.92503696 264.29480886 218.92192215 272.50512181 218.91627693 280.71544075 C218.90812043 292.58591611 218.90554247 304.45638763 218.90428894 316.32686549 C218.90210492 335.58990144 218.89546251 354.85293315 218.88598633 374.1159668 C218.87679536 392.81876606 218.86973426 411.52156417 218.86547852 430.22436523 C218.86521052 431.39060045 218.86494252 432.55683567 218.8646664 433.75841135 C218.86258676 442.88029017 218.86062991 452.00216902 218.85871184 461.12404788 C218.84929267 505.77003973 218.82917093 550.41602092 218.81054688 595.06201172 C160.07054687 595.06201172 101.33054687 595.06201172 40.81054688 595.06201172 C40.77316406 571.70033203 40.73578125 548.33865234 40.69726562 524.26904297 C40.66698712 509.46239674 40.63597928 494.65575743 40.6015625 479.84912109 C40.58351455 472.06811574 40.56565092 464.28711 40.5480957 456.50610352 C40.54478417 455.04343399 40.54478417 455.04343399 40.54140574 453.55121559 C40.50611411 437.84476934 40.48121161 422.13832313 40.46019986 406.43185202 C40.43837475 390.29175197 40.40526115 374.151703 40.36184531 358.01164645 C40.33544373 348.06643699 40.31766393 338.12129109 40.31120083 328.17604836 C40.30591155 321.3399977 40.28957726 314.50402674 40.26488122 307.66801891 C40.25098632 303.734336 40.24164969 299.80079535 40.24553871 295.86708641 C40.25854307 279.39015231 39.87797543 263.30100728 36.81054688 247.06201172 C36.60171718 245.92570722 36.39288748 244.78940271 36.17772961 243.61866474 C35.7011119 241.14205094 35.15920213 238.6992142 34.56054688 236.24951172 C34.35147705 235.38898193 34.14240723 234.52845215 33.92700195 233.6418457 C31.79637492 225.32662098 28.68762104 217.70248666 24.81054688 210.06201172 C24.5130957 209.45808594 24.21564453 208.85416016 23.90917969 208.23193359 C13.49697003 187.36248851 -3.28075858 174.77702038 -25.01977539 167.05688477 C-35.31498013 163.8255084 -45.99363794 163.74890956 -56.68945312 163.81201172 C-58.00042969 163.80427734 -59.31140625 163.79654297 -60.66210938 163.78857422 C-84.42497068 163.83576957 -106.66279335 169.7789785 -125.18945312 185.06201172 C-126.02734375 185.72587891 -126.86523438 186.38974609 -127.72851562 187.07373047 C-150.61336902 206.23890955 -160.88342616 238.60902852 -163.76728439 267.34270859 C-164.74995789 278.97759351 -164.50152561 290.70501713 -164.50612736 302.3740356 C-164.50986522 306.31242804 -164.52504165 310.25077985 -164.53874207 314.18914795 C-164.56088277 320.99217414 -164.5759748 327.79518562 -164.58610916 334.5982399 C-164.60077171 344.4339861 -164.62632909 354.26968099 -164.65444045 364.10539685 C-164.69977177 380.06797226 -164.73644264 396.03055511 -164.76757812 411.99316406 C-164.79781989 427.48796902 -164.83221808 442.98275573 -164.87207031 458.47753906 C-164.87455182 459.44435108 -164.87703333 460.4111631 -164.87959003 461.40727246 C-164.89903281 468.96976742 -164.91871458 476.53226175 -164.93847179 484.09475589 C-165.03504565 521.08381892 -165.11079692 558.07289786 -165.18945312 595.06201172 C-221.94945312 595.06201172 -278.70945312 595.06201172 -337.18945312 595.06201172 C-337.18945312 404.32201172 -337.18945312 213.58201172 -337.18945312 17.06201172 C-280.42945313 17.06201172 -223.66945313 17.06201172 -165.18945312 17.06201172 C-164.85945312 42.14201172 -164.52945313 67.22201172 -164.18945312 93.06201172 C-161.87945313 89.43201172 -159.56945312 85.80201172 -157.18945312 82.06201172 C-155.45365433 79.82992116 -153.66833629 77.63453933 -151.81445312 75.49951172 C-151.34749023 74.9592334 -150.88052734 74.41895508 -150.39941406 73.86230469 C-149.00454671 72.25455649 -147.59896091 70.65692788 -146.18945312 69.06201172 C-144.97128906 67.675625 -144.97128906 67.675625 -143.72851562 66.26123047 C-136.10676708 57.69001496 -128.23046556 50.14300516 -119.18945312 43.06201172 C-118.65352539 42.63903809 -118.11759766 42.21606445 -117.56542969 41.78027344 C-94.83491438 23.98284789 -68.4487498 11.11593422 -40.18945312 5.06201172 C-39.33222656 4.87413086 -38.475 4.68625 -37.59179688 4.49267578 C-25.04547444 1.78526341 -12.8409779 0.24966384 0 0 Z " fill="#FEFEFE" transform="translate(814.189453125,437.93798828125)"/>
<path d="M0 0 C59.07 0 118.14 0 179 0 C179 190.74 179 381.48 179 578 C119.93 578 60.86 578 0 578 C0 387.26 0 196.52 0 0 Z " fill="#FEFEFE" transform="translate(184,455)"/>
<path d="M0 0 C0.87011719 0.19335938 1.74023438 0.38671875 2.63671875 0.5859375 C28.15065379 7.08039369 50.16598375 26.25420851 63.6875 48.25 C78.44334978 73.14217375 81.97624261 103.02983104 75 131 C74.70996094 132.28777344 74.70996094 132.28777344 74.4140625 133.6015625 C67.89604588 158.91178288 49.65597189 181.37192055 27.6328125 194.91796875 C22.27882183 198.05656413 16.74230689 200.65423803 11 203 C10.1234375 203.37769531 9.246875 203.75539063 8.34375 204.14453125 C-15.20637733 213.61423606 -42.58759342 212.3072131 -65.9375 203.125 C-77.08432855 198.36981038 -86.49814889 192.51945052 -96 185 C-96.65871094 184.49726563 -97.31742188 183.99453125 -97.99609375 183.4765625 C-103.50189949 179.07700411 -107.71062105 173.550961 -112 168 C-112.60972656 167.22914063 -113.21945313 166.45828125 -113.84765625 165.6640625 C-131.08686414 142.65227247 -136.06291702 112.60515059 -132.5390625 84.52734375 C-127.54426655 57.05596604 -111.39089701 31.78223539 -88.65209961 15.67260742 C-62.33624934 -2.23956735 -30.8950482 -7.69678733 0 0 Z " fill="#FEFEFE" transform="translate(300,170)"/>
<path d="M0 0 C0.33 0 0.66 0 1 0 C1 38.61 1 77.22 1 117 C-37.61 117 -76.22 117 -116 117 C-116 116.67 -116 116.34 -116 116 C-114.09541016 115.65388672 -114.09541016 115.65388672 -112.15234375 115.30078125 C-76.81509457 108.69143242 -44.32698253 91.45022998 -23.46362305 61.29345703 C-10.81688023 42.44397328 -2.98001361 22.52539701 0 0 Z " fill="#000000" transform="translate(1199,1083)"/>
<path d="M0 0 C0.33 0 0.66 0 1 0 C1.23074219 1.26972656 1.46148437 2.53945312 1.69921875 3.84765625 C7.09774794 32.71119122 18.42551675 56.92598454 39 78 C39.65355469 78.71542969 40.30710938 79.43085937 40.98046875 80.16796875 C46.87254778 86.46206597 53.85615341 91.24349999 61 96 C61.94617187 96.63035156 62.89234375 97.26070312 63.8671875 97.91015625 C79.93848406 107.90349788 98.34245907 113.51393698 117 116 C117 116.33 117 116.66 117 117 C78.39 117 39.78 117 0 117 C0 78.39 0 39.78 0 0 Z " fill="#000000" transform="translate(0,1083)"/>
<path d="M0 0 C38.61 0 77.22 0 117 0 C117 0.33 117 0.66 117 1 C115.73027344 1.23074219 114.46054688 1.46148437 113.15234375 1.69921875 C84.28880878 7.09774794 60.07401546 18.42551675 39 39 C38.28457031 39.65355469 37.56914063 40.30710938 36.83203125 40.98046875 C16.08173375 60.40539794 4.66220513 89.31803772 1 117 C0.67 117 0.34 117 0 117 C0 78.39 0 39.78 0 0 Z " fill="#000000" transform="translate(0,0)"/>
<path d="M0 0 C38.61 0 77.22 0 117 0 C117 38.61 117 77.22 117 117 C116.67 117 116.34 117 116 117 C115.65388672 115.09541016 115.65388672 115.09541016 115.30078125 113.15234375 C109.90225206 84.28880878 98.57448325 60.07401546 78 39 C77.34644531 38.28457031 76.69289063 37.56914063 76.01953125 36.83203125 C56.59460206 16.08173375 27.68196228 4.66220513 0 1 C0 0.67 0 0.34 0 0 Z " fill="#000000" transform="translate(1083,0)"/>
</svg>
